<svg width="35" height="37" fill="none" xmlns="http://www.w3.org/2000/svg"><path d="M34.08 29.947l-.24 1.364c-.574.048-1.076.072-1.507.072-.622 0-1.372-.048-2.249-.144-1.5-.16-2.448-.239-2.847-.239-.67 0-1.699.104-3.087.311.495-1.244.91-2.552 1.245-3.924.239-.973.494-2.648.765-5.024-1.866-.016-4.761.024-8.685.12-4.051 6.188-7.026 10.072-8.924 11.651-1.882 1.595-3.677 2.393-5.384 2.393-.893 0-1.555-.176-1.985-.526-.447-.335-.67-.774-.67-1.316 0-.415.127-.758.383-1.03a1.26 1.26 0 01.957-.406c.223 0 .526.04.909.12.957.223 1.595.335 1.914.335 1.068 0 2.249-.607 3.54-1.819 2.106-1.978 5.217-6.125 9.332-12.441 4.657-7.146 8.43-12.346 11.317-15.6-3.94.351-6.396.686-7.37 1.005-1.34.43-2.344 1.069-3.014 1.914-.67.846-1.005 1.707-1.005 2.584 0 .287.104.694.311 1.22.223.59.335 1.021.335 1.292 0 .351-.136.662-.407.934a1.337 1.337 0 01-.98.406c-.543 0-.982-.2-1.317-.598-.319-.415-.478-1.029-.478-1.842 0-1.149.295-2.257.885-3.326.606-1.085 1.468-1.986 2.584-2.704 1.117-.733 2.512-1.292 4.187-1.674.861-.208 2.377-.391 4.546-.55 1.882-.16 3.063-.312 3.541-.455.75-.208 1.468-.614 2.153-1.22-.478 1.962-.821 3.676-1.028 5.144L29.94 19.803l-1.076 9.905c1.18.303 2.24.455 3.182.455.622 0 1.3-.072 2.034-.216zm-7.704-9.355c.765-6.476 1.53-11.205 2.296-14.188-2.025 2.68-3.277 4.37-3.756 5.073l-6.149 9.115c1.324.048 3.214.072 5.67.072.607 0 1.253-.024 1.938-.072z" fill="#fff"/></svg>