<svg width="121" height="121" fill="none" xmlns="http://www.w3.org/2000/svg"><path d="M79.6 96.887l-.086.05a42.89 42.89 0 01-9.543 4.044 42.6 42.6 0 01-10.956 1.642 42.992 42.992 0 01-10.494-1.101l-.038-.009-.074-.017-.11-.026h-.001l-.3-.072-.085-.021a5.78 5.78 0 00-.126-.031l-.136-.035-.028-.007a1.478 1.478 0 00-.064-.016l-.114-.03-.112-.029-.037-.009-.157-.042-.003-.001h-.003l-.043-.012-.273-.074-.01-.003a1.776 1.776 0 01-.07-.019l-.02-.006-.027-.007-.003-.001a42.888 42.888 0 01-11.46-5.085l-.12-.076-.023-.015A42.38 42.38 0 0121.261 81.46l-.034-.059-.103-.178-.001-.002a.9.9 0 01-.008-.013v-.001l-.008-.014-.002-.003-.007-.012-.001-.002-.007-.013h-.001a.927.927 0 01-.008-.014l-.002-.004-.006-.011-.002-.003a.515.515 0 00-.007-.012v-.002l-.008-.013-.009-.015-.008-.015-.001-.001-.016-.029-.002-.003a.407.407 0 01-.007-.011l-.002-.005a.344.344 0 00-.006-.01l-.002-.004-.007-.011v-.002a.927.927 0 01-.008-.013l-.001-.003-.007-.012-.001-.002a2.535 2.535 0 01-.016-.028v-.001l-.009-.014a1.879 1.879 0 00-.008-.015l-.009-.015v-.001l-.008-.014-.008-.015a4.307 4.307 0 01-.018-.03l-.007-.014v-.001l-.009-.014-.066-.12-.009-.015-.033-.06-.14-.254-.048-.09-.008-.015-.008-.015-.008-.015-.089-.165-.008-.015a.636.636 0 01-.008-.015l-.008-.015-.024-.045-.04-.075-.015-.03-.008-.015v-.001a8.224 8.224 0 01-.023-.045h-.001a1.073 1.073 0 00-.008-.015l-.008-.015a1.027 1.027 0 00-.008-.015l-.008-.015-.008-.015v-.001l-.007-.014-.008-.015v-.001l-.008-.014-.008-.015v-.001l-.008-.014v-.001l-.008-.014v-.001l-.007-.014-.001-.001a.609.609 0 01-.007-.014v-.001l-.008-.014v-.002l-.008-.013v-.002a1.654 1.654 0 00-.008-.013v-.002l-.007-.013-.001-.002-.007-.013-.001-.002-.007-.014v-.001l-.008-.014-.008-.014v-.001l-.007-.014-.001-.001-.007-.014v-.001a1.704 1.704 0 00-.008-.014v-.002a.86.86 0 00-.008-.015l-.007-.013-.001-.002a.81.81 0 00-.008-.016l-.007-.012v-.003l-.007-.012-.002-.003-.006-.012-.001-.003-.007-.013v-.002l-.008-.013v-.002a.835.835 0 00-.007-.013l-.001-.002-.007-.013v-.002l-.007-.013-.002-.002a.762.762 0 01-.014-.028l-.001-.003-.006-.012-.002-.003a.518.518 0 00-.015-.03l-.006-.013-.002-.002-.006-.013-.001-.002-.007-.013v-.002a.862.862 0 00-.007-.013L20 79.136l-.007-.013-.001-.003-.006-.013-.001-.001-.007-.014v-.001l-.008-.014v-.001a1.754 1.754 0 00-.007-.014l-.001-.002a.534.534 0 00-.008-.015l-.006-.013-.001-.002-.007-.013-.001-.002-.006-.013-.002-.003-.006-.012-.001-.003-.007-.013v-.002l-.007-.013-.001-.002-.006-.013-.002-.002-.006-.013-.001-.002-.007-.013v-.003l-.007-.012-.001-.003-.006-.012-.002-.003-.006-.013a.02.02 0 00-.001-.002l-.006-.013-.002-.002-.006-.013-.001-.002-.007-.013v-.003a.695.695 0 01-.008-.015l-.006-.012-.002-.003a.718.718 0 01-.006-.013l-.001-.002-.006-.013-.002-.002-.006-.013-.001-.002-.006-.013-.002-.003-.006-.012v-.003a1.508 1.508 0 00-.008-.015l-.007-.013v-.002a1.407 1.407 0 01-.007-.013l-.001-.003a.71.71 0 01-.006-.012l-.002-.003-.006-.012-.001-.003-.006-.013-.001-.002-.006-.013-.002-.002-.006-.013-.001-.002-.006-.013-.002-.003-.005-.012-.002-.003a.68.68 0 01-.006-.012l-.001-.003a.68.68 0 01-.006-.012c0-.002-.001-.002-.002-.003l-.006-.013-.001-.003a.636.636 0 01-.007-.015l-.006-.012-.002-.003-.005-.012-.002-.003-.006-.012a.68.68 0 01-.007-.015c0-.002-.001-.002-.002-.003l-.005-.013-.002-.003-.006-.012-.001-.003a1.371 1.371 0 01-.006-.012l-.002-.004-.005-.011a.05.05 0 01-.002-.004l-.006-.012-.001-.003-.006-.012-.001-.003-.006-.012-.002-.004-.005-.011-.002-.004-.006-.011-.001-.004-.006-.012-.001-.003a1.371 1.371 0 00-.008-.015l-.005-.012-.002-.003-.006-.012-.001-.004-.006-.012-.001-.002-.006-.013a.05.05 0 01-.002-.003l-.005-.012-.002-.003-.005-.012a.115.115 0 01-.002-.004l-.005-.011-.002-.004-.006-.011-.002-.005-.005-.01c0-.002 0-.003-.002-.004l-.005-.012-.002-.004-.005-.011-.002-.004-.005-.011-.002-.004-.005-.012-.002-.004-.006-.01c0-.002 0-.004-.002-.005l-.005-.011a.389.389 0 00-.007-.015l-.002-.005-.005-.01-.002-.005-.005-.01-.002-.005-.005-.011-.002-.004a.568.568 0 00-.005-.011l-.002-.004a1.223 1.223 0 00-.005-.012l-.002-.004-.005-.01-.002-.005a.54.54 0 00-.006-.011l-.001-.004-.006-.011c0-.002 0-.003-.002-.005l-.005-.01-.002-.005-.005-.01-.002-.005-.005-.01-.002-.005a1.098 1.098 0 00-.005-.011l-.002-.005-.005-.01-.002-.005a1.098 1.098 0 01-.005-.01l-.002-.005-.005-.01a.068.068 0 00-.002-.006l-.005-.01a.13.13 0 01-.002-.005l-.005-.01-.002-.005a.828.828 0 01-.007-.016l-.005-.01a.323.323 0 00-.007-.015l-.002-.005a.794.794 0 01-.005-.01l-.002-.006-.005-.01-.002-.005a.398.398 0 00-.012-.025l-.002-.006a.274.274 0 01-.005-.01l-.002-.005-.005-.01a.298.298 0 00-.007-.015l-.002-.005-.004-.01-.003-.006-.004-.01-.003-.005a.303.303 0 01-.004-.01l-.003-.005-.004-.01-.003-.005a.303.303 0 01-.004-.01l-.003-.006a.404.404 0 01-.004-.01c0-.002-.002-.003-.003-.005 0-.003-.003-.007-.004-.01l-.002-.006a.765.765 0 01-.005-.01l-.002-.005a.415.415 0 00-.005-.01l-.002-.005-.005-.01a.148.148 0 00-.006-.015l-.003-.006a.446.446 0 01-.005-.01l-.002-.005a.446.446 0 01-.004-.01l-.003-.006-.004-.009-.003-.006-.004-.01a.144.144 0 01-.007-.015l-.002-.005-.005-.01a.151.151 0 01-.002-.006l-.005-.01-.002-.005a.296.296 0 01-.004-.01l-.003-.005c0-.003-.003-.008-.004-.01l-.003-.005a.428.428 0 00-.004-.01l-.003-.006a.37.37 0 00-.006-.015l-.005-.01-.002-.006a.387.387 0 00-.004-.01l-.003-.005-.004-.01-.003-.005c0-.003-.003-.007-.004-.01l-.002-.005-.005-.01a.158.158 0 00-.006-.015l-.003-.006-.004-.01a.135.135 0 01-.003-.006l-.004-.009a.337.337 0 01-.003-.006l-.003-.01a.178.178 0 01-.003-.006c-.002-.002-.003-.006-.004-.009a.151.151 0 00-.003-.006l-.004-.009-.003-.006-.004-.01a.178.178 0 01-.006-.014l-.003-.007a.807.807 0 00-.007-.015l-.004-.01a.206.206 0 01-.003-.006l-.003-.008a.482.482 0 00-.003-.007l-.004-.009-.003-.007-.004-.008a.178.178 0 00-.003-.007l-.003-.008-.004-.007-.003-.009-.003-.006-.004-.01a.194.194 0 01-.003-.006l-.004-.009-.002-.006-.004-.009-.003-.007-.004-.008-.003-.007-.003-.009a.456.456 0 01-.003-.006l-.004-.009-.003-.007a.686.686 0 01-.004-.008l-.003-.007a.624.624 0 01-.003-.008l-.003-.008-.004-.007c0-.003-.002-.006-.003-.008l-.003-.008-.004-.008-.003-.007-.003-.008-.003-.008a.268.268 0 01-.007-.015l-.004-.008-.003-.007c0-.003-.002-.005-.003-.008l-.003-.008-.004-.008-.003-.007-.003-.008-.003-.007a.614.614 0 00-.004-.008c0-.003-.002-.005-.003-.008l-.003-.008-.004-.007c0-.003-.002-.005-.003-.008l-.003-.007a.283.283 0 01-.003-.008l-.003-.008-.004-.008a.155.155 0 00-.003-.007l-.004-.008c0-.003-.002-.005-.003-.007a.288.288 0 01-.006-.016l-.003-.008-.004-.007c0-.003-.002-.005-.003-.008l-.003-.008-.004-.008-.003-.007-.003-.009-.003-.006-.004-.009a.134.134 0 00-.002-.007l-.004-.008-.003-.007-.004-.009-.002-.006a.784.784 0 01-.004-.01l-.003-.006-.003-.008-.003-.007-.004-.009-.003-.006-.003-.01-.003-.006a.818.818 0 00-.004-.009l-.003-.006-.003-.01a.163.163 0 01-.003-.005l-.004-.01a.16.16 0 00-.002-.006l-.004-.009-.003-.006-.004-.01-.002-.006c-.002-.002-.003-.006-.004-.009a.422.422 0 00-.003-.006l-.003-.01-.003-.006-.004-.008-.002-.007-.004-.01-.003-.005a.368.368 0 00-.006-.016l-.004-.009-.003-.006-.003-.01-.003-.005-.004-.01a.132.132 0 00-.002-.005l-.004-.01-.002-.006-.005-.01a.128.128 0 00-.002-.005l-.004-.01-.002-.006-.004-.01a.1.1 0 00-.002-.005l-.005-.01a.329.329 0 01-.008-.02l-.004-.011a.457.457 0 00-.006-.016l-.003-.004a.342.342 0 00-.004-.011l-.002-.005-.004-.01a.09.09 0 00-.002-.005l-.005-.01-.002-.006a.482.482 0 01-.006-.015l-.004-.01a.1.1 0 00-.002-.006l-.004-.01-.002-.005-.005-.01-.002-.005-.004-.011-.002-.004-.004-.012a.373.373 0 00-.006-.016l-.002-.003-.005-.011a.086.086 0 00-.002-.005l-.004-.011-.002-.004-.004-.012a.061.061 0 00-.002-.003l-.004-.012-.002-.004a.401.401 0 01-.005-.011l-.001-.004-.005-.012-.001-.004a.563.563 0 01-.007-.015l-.004-.012-.002-.004-.004-.011a.167.167 0 01-.002-.004l-.005-.012v-.003l-.006-.012-.001-.004a.414.414 0 00-.005-.012l-.001-.003a.393.393 0 01-.005-.012l-.002-.004-.004-.012-.002-.003-.005-.012v-.003l-.006-.013a.04.04 0 000-.003l-.006-.012-.001-.003a1.093 1.093 0 00-.005-.013v-.002a.712.712 0 00-.006-.013l-.001-.003-.005-.013-.001-.002a1.132 1.132 0 01-.005-.013l-.001-.003a.676.676 0 00-.005-.013l-.001-.002-.005-.013-.002-.003-.005-.013v-.002l-.006-.013v-.003a.698.698 0 01-.006-.013v-.002a.73.73 0 01-.006-.013v-.003a.707.707 0 01-.006-.013v-.001l-.006-.014v-.002l-.006-.014-.006-.015v-.002a.771.771 0 00-.006-.014v-.001a.556.556 0 00-.006-.014v-.002l-.006-.014v-.001a.795.795 0 01-.006-.014v-.002l-.006-.014v-.001a.795.795 0 00-.006-.014v-.002l-.006-.014-.006-.015v-.002a2.251 2.251 0 00-.011-.03h-.002l-.011-.03a3.757 3.757 0 01-.012-.031l-.012-.031-.012-.031a41.966 41.966 0 01-2.158-7.877l-.006-.032-.003-.016-.002-.015v-.001l-.006-.032-.002-.015-.003-.016v-.001a.705.705 0 00-.003-.015l-.002-.016-.003-.016-.003-.016-.002-.016-.008-.048-.003-.016-.002-.015v-.002l-.003-.014v-.002a.824.824 0 01-.003-.014v-.003l-.002-.013v-.002l-.003-.014v-.002a.69.69 0 00-.003-.014v-.002l-.002-.014v-.002l-.003-.014v-.002l-.002-.014v-.003l-.003-.012v-.004l-.002-.012-.001-.005a.415.415 0 01-.002-.011v-.004l-.003-.012v-.004l-.002-.012v-.004l-.003-.012v-.005l-.002-.011v-.004l-.003-.012v-.004l-.002-.012v-.005l-.002-.01-.002-.006-.001-.01v-.005l-.003-.012v-.004l-.002-.011v-.006l-.003-.01v-.006a.319.319 0 01-.002-.01L16 66.672l-.002-.01v-.007a.28.28 0 01-.002-.009l-.001-.007-.001-.008-.002-.008v-.009l-.002-.006-.001-.01-.001-.007-.002-.008v-.008l-.002-.008-.001-.009-.002-.007v-.008l-.002-.008-.001-.008-.002-.008v-.009l-.002-.007-.001-.01-.001-.006-.002-.008v-.008l-.002-.009-.001-.007-.001-.009-.001-.007-.002-.009a.16.16 0 010-.007l-.002-.009-.001-.007-.002-.01v-.006l-.002-.01v-.005l-.003-.011v-.005l-.002-.01v-.007l-.002-.01-.001-.005-.002-.011a.08.08 0 000-.005l-.002-.012v-.004l-.002-.012v-.004c-.002-.004-.002-.009-.003-.013v-.003l-.002-.014v-.001l-.003-.015v-.001l-.002-.014v-.003a.608.608 0 00-.002-.013v-.002l-.002-.015v-.001l-.003-.015v-.001l-.002-.016-.002-.016c-1.464-10.295.95-20.79 6.681-29.409l.01-.013a3.98 3.98 0 01.017-.027l.009-.013.001-.002.008-.012a3.98 3.98 0 00.018-.026v-.002c.004-.004.005-.007.008-.012l.003-.003.006-.01.002-.002.007-.011.002-.002.007-.012.002-.003.007-.01.002-.003.007-.01.001-.002.008-.012.002-.002a1.127 1.127 0 00.01-.014l.006-.01.004-.005a.224.224 0 01.005-.008l.003-.005.006-.009a.196.196 0 00.004-.006l.005-.007.005-.007.004-.006a.438.438 0 01.005-.007l.004-.007.004-.005.005-.008.004-.006a.413.413 0 01.005-.007l.006-.009.003-.004.006-.01.003-.004.006-.009.003-.004.006-.01.003-.003.007-.01.002-.004.007-.01.002-.003.007-.01.002-.003.009-.013a42.278 42.278 0 012.657-3.49v-.001l.042-.05.01-.012.01-.012h.001l.01-.012.001-.001a.962.962 0 01.01-.011v-.002l.01-.011h.001l.01-.012V32.7l.01-.012h.001l.01-.012.001-.002.01-.01v-.002l.01-.01.001-.002.01-.011v-.002l.01-.01.002-.002.009-.01.001-.002.01-.011V32.6l.01-.01.001-.002.01-.01.001-.003.009-.01.002-.002.009-.01c0-.001 0-.002.002-.003l.008-.01.002-.002.009-.01.002-.003a.82.82 0 01.008-.01c.001 0 .002 0 .002-.002l.01-.01.001-.002.009-.01.002-.002.008-.01.003-.003.008-.01.002-.002.009-.01.002-.002.008-.01.003-.003.008-.009.003-.003.008-.01.002-.002.008-.01.003-.002.008-.01.002-.003.009-.01.002-.002.008-.01.003-.002.008-.01.003-.003.007-.009.004-.003a.561.561 0 01.007-.009l.004-.004a.576.576 0 01.007-.008c0-.002.002-.003.003-.004a.343.343 0 01.008-.009l.003-.003a.308.308 0 00.007-.009l.004-.004.007-.008.004-.004.007-.008.003-.004.008-.009.003-.003a.289.289 0 01.007-.009l.004-.004.007-.008.004-.004.007-.008.003-.004.007-.008.004-.005.007-.007.004-.005a.25.25 0 01.01-.012l.008-.008.003-.004a.263.263 0 01.007-.008l.004-.005a.263.263 0 00.007-.007l.004-.005.007-.007.004-.005.007-.008.004-.004.007-.008.003-.004a.25.25 0 01.007-.008l.004-.005.007-.007a.224.224 0 01.004-.005l.007-.008.004-.004.007-.008.004-.004.006-.008.005-.004.006-.008.005-.005.006-.007.004-.005.007-.007.004-.005a.226.226 0 01.007-.007l.004-.005.006-.007.005-.006.006-.006.005-.006.006-.006.005-.006.006-.006.005-.006.006-.006.005-.007.006-.006.005-.005.006-.007.005-.006a.38.38 0 01.005-.006l.005-.006.006-.006.006-.006.005-.006.006-.006.005-.006.006-.007a.274.274 0 01.01-.012l.005-.005.006-.007.006-.006.005-.006.006-.006.005-.006.005-.006.006-.006.005-.006.006-.006.005-.006.006-.006a.305.305 0 01.011-.013l.005-.005.006-.007.005-.005.006-.007.005-.005.006-.007.005-.006.006-.006.005-.005a.355.355 0 00.01-.012l.007-.007.005-.006.006-.006.005-.006a.367.367 0 01.006-.006l.005-.005.006-.008.005-.004a.444.444 0 01.006-.008l.005-.005a.39.39 0 00.01-.012l.007-.007.005-.004.006-.008.004-.004a.457.457 0 00.007-.008l.005-.005.006-.007a.235.235 0 01.005-.005l.006-.007a.16.16 0 01.004-.004l.008-.008c0-.002.002-.003.003-.004l.008-.008c0-.002.002-.003.004-.005l.006-.007.005-.005a.415.415 0 00.006-.007l.005-.005.007-.007a.16.16 0 00.01-.012l.005-.005a.457.457 0 00.007-.007l.004-.005.007-.007.004-.004a.572.572 0 01.007-.009l.004-.003.007-.008a.525.525 0 01.015-.016l.007-.008a.137.137 0 00.004-.004l.008-.008c0-.002.002-.003.003-.004l.008-.008c0-.002.002-.003.003-.004l.008-.008.003-.004.008-.008a.066.066 0 00.003-.004l.008-.008.003-.004.008-.008.004-.004a.521.521 0 01.007-.008l.004-.004.007-.008.004-.004.008-.008.003-.004.008-.008.003-.004.008-.008.003-.004.008-.008.003-.003.008-.009.003-.003.008-.009.004-.003.007-.009.004-.003.008-.009a.119.119 0 01.003-.003l.008-.009.003-.003.008-.009.003-.003.008-.009.003-.003.009-.009.002-.003.009-.009.002-.002.01-.01.002-.002.008-.01.003-.002.009-.01.002-.002a.778.778 0 00.009-.01l.002-.002.01-.01.001-.001a.862.862 0 00.02-.022l.003-.003a.382.382 0 00.009-.009l.002-.002a.848.848 0 01.01-.01l.001-.002a.795.795 0 00.009-.01l.003-.003.008-.008.003-.003.009-.01.002-.002.009-.01s.002 0 .003-.002l.008-.009.003-.003.009-.009.002-.002.009-.01.002-.002.01-.01v-.001l.01-.01.003-.003.009-.01.002-.002.01-.01v-.001l.01-.01.002-.002.01-.01.002-.002.01-.01v-.001l.01-.01.002-.002.01-.01.001-.002a.982.982 0 01.01-.01l.002-.002.01-.01v-.001l.01-.01.002-.002.01-.011a1.142 1.142 0 01.013-.013l.01-.01v-.001l.011-.011.001-.001.011-.011.011-.011.002-.002.01-.01.011-.012v-.001l.023-.023.011-.012.012-.011v-.001l.011-.011.011-.012.002-.001.01-.01v-.001l.011-.011v-.001l.023-.023.023-.023.023-.024.046-.046v-.001l.023-.023.023-.023.023-.024.023-.023.046-.047a42.328 42.328 0 013.688-3.311l.052-.041.013-.011.092-.072.105-.083.026-.02.026-.021.014-.01.013-.011.013-.01.013-.01.013-.01v-.001l.013-.01.014-.01.012-.01.001-.001.013-.01.013-.01.013-.01.013-.01.002-.001a.984.984 0 01.012-.01l.013-.01a4.32 4.32 0 00.014-.01l.012-.01.001-.001.012-.01h.002l.012-.01.013-.01.013-.01.002-.001.011-.009.002-.001.011-.01h.002l.012-.01h.001a1.15 1.15 0 00.014-.01l.011-.01.002-.001.011-.009.002-.001.012-.01h.002l.011-.01h.002l.011-.01h.002l.012-.01h.001l.012-.01h.002l.011-.01.002-.001a1.21 1.21 0 01.012-.01h.001l.012-.01h.002l.012-.01.012-.01.003-.001.01-.009.003-.001.011-.009.002-.001.012-.009.002-.001a.485.485 0 01.01-.009l.003-.002.011-.008.002-.002.012-.008.002-.002.011-.008.002-.002.011-.008.003-.002.01-.008.003-.002.011-.008.002-.002.011-.008.003-.002.01-.009.003-.001.011-.009.002-.001.012-.009.002-.001.011-.009c.001 0 .002 0 .002-.002l.011-.008.003-.002a.766.766 0 00.01-.008c.002 0 .003-.001.003-.002l.011-.008.003-.002.01-.008c.002 0 .002-.001.003-.002l.011-.008.003-.002.01-.008.003-.002a.823.823 0 01.011-.008l.002-.002.012-.008.002-.002a1.108 1.108 0 01.014-.01l.01-.008.003-.002.011-.008.002-.002.012-.008.002-.002.011-.008.002-.002.011-.008.003-.002a.783.783 0 01.01-.008.727.727 0 01.027-.02l.004-.002.01-.008a.033.033 0 00.003-.002l.01-.008a.24.24 0 01.014-.01l.003-.002.01-.008.004-.002.01-.008.003-.002.01-.008.004-.002.01-.008.003-.002.01-.008.004-.002.01-.008c.002 0 .002-.001.003-.002l.01-.008.004-.002.01-.008.003-.002.011-.008.003-.002.011-.008.002-.001.011-.009.003-.002.011-.008s.002 0 .003-.002l.01-.007.003-.003.011-.007.003-.002.01-.008.003-.002.011-.008.003-.002.01-.008.004-.002.01-.008c.002 0 .002-.001.003-.002l.01-.008.004-.002.01-.008.003-.002.011-.008a.036.036 0 00.003-.002l.011-.008s.002 0 .002-.002l.011-.008c.001 0 .003 0 .003-.002l.011-.007.003-.002.01-.008.004-.002.01-.008.003-.002.011-.008.003-.002.01-.008.004-.002.01-.007.004-.003a.594.594 0 00.01-.007l.003-.003a.624.624 0 01.024-.017l.003-.002.01-.008.004-.002a.376.376 0 01.028-.02.937.937 0 01.024-.017l.003-.003.01-.007a.376.376 0 01.014-.01l.004-.002.01-.007.003-.003.01-.007.004-.003.01-.007a.645.645 0 00.017-.012l.01-.008.004-.002a.66.66 0 00.01-.007l.004-.003.01-.007.003-.002.01-.008.004-.002.01-.008.004-.002.01-.007.004-.003a.621.621 0 01.014-.01l.01-.007.004-.003a.36.36 0 01.01-.007l.003-.002.01-.007.004-.003.01-.007.004-.003.01-.007.004-.002.01-.008.003-.002.01-.007.005-.003a.798.798 0 00.01-.007l.003-.003.01-.006.004-.003a.344.344 0 01.01-.007l.004-.003a.621.621 0 00.023-.017c.002 0 .003-.002.005-.003a.565.565 0 00.01-.006c0-.002.002-.002.003-.003l.01-.007.004-.003.01-.007c.002 0 .003-.002.004-.003l.01-.006.004-.003.01-.007.004-.003.01-.007.003-.002.01-.007a.118.118 0 01.005-.003l.01-.007.003-.003.01-.006.005-.004.009-.006.004-.003.01-.007.004-.003.01-.007.004-.003.01-.006.004-.003a.798.798 0 00.01-.007l.004-.003.01-.006c0-.002.002-.002.004-.004l.009-.006a.183.183 0 00.005-.003l.009-.007.005-.003a.733.733 0 00.013-.01l.01-.006a.191.191 0 01.005-.003l.009-.006a.16.16 0 01.004-.003l.01-.007.004-.003.01-.007.004-.003.01-.006.004-.003a.798.798 0 00.01-.007l.004-.003.01-.007.004-.002.01-.007.004-.003.01-.007a.175.175 0 01.004-.003l.01-.006a.153.153 0 01.004-.003l.01-.007a.153.153 0 00.004-.003l.01-.006.004-.003.01-.007a.183.183 0 00.004-.003l.01-.006.004-.003.01-.007.003-.003.01-.006.004-.003.01-.007.005-.003.01-.007a.146.146 0 00.003-.002l.01-.007.005-.003.01-.007.004-.002.01-.007.004-.003.01-.007a.168.168 0 00.004-.003l.01-.006a.183.183 0 00.004-.003l.01-.007.004-.003.01-.006a.191.191 0 01.004-.003l.01-.007.004-.002.01-.007.004-.003.01-.007.004-.002a.561.561 0 00.01-.007l.004-.003.01-.006a.175.175 0 00.004-.004l.01-.006.004-.003.01-.006.004-.003.01-.007.004-.003.01-.006a.153.153 0 00.004-.003l.01-.007.005-.003.009-.006a.2.2 0 00.014-.01c.002 0 .003-.002.005-.003l.009-.006.005-.003c.003-.003.006-.004.01-.006l.004-.004.01-.006.004-.003.01-.006.004-.004.01-.006a.3.3 0 00.02-.013l.008-.005.005-.004a.3.3 0 00.009-.006l.005-.003c.003-.003.006-.004.01-.006 0-.002.002-.002.004-.004l.01-.006.004-.003.01-.006.004-.003.01-.006.005-.004.009-.006.005-.003.009-.006.005-.003.009-.006.005-.004.009-.006a.165.165 0 01.005-.003l.01-.006.005-.004a.274.274 0 01.008-.006l.006-.003.009-.006.005-.003.009-.006.005-.004.009-.006c.002 0 .003-.002.005-.003l.01-.006.004-.003.01-.006.004-.004.01-.005.005-.004.009-.006a.147.147 0 00.005-.003l.01-.006.004-.003.01-.007a.13.13 0 00.004-.003l.01-.006a.157.157 0 01.005-.003l.009-.006a.15.15 0 01.005-.003l.009-.006a.157.157 0 00.005-.004l.01-.006a.13.13 0 01.004-.003l.01-.006.005-.003.009-.006.005-.004.009-.005.005-.004.01-.006a.393.393 0 01.004-.003l.01-.006.005-.003a.48.48 0 00.014-.01l.01-.006.004-.003.01-.006.004-.003.01-.006.005-.003a.024.024 0 01.01-.006c0-.002.002-.002.004-.003l.01-.007a.13.13 0 00.004-.003l.01-.006a.114.114 0 00.004-.003l.01-.006.005-.003c.003-.003.006-.004.01-.006l.004-.003c.003-.003.006-.004.01-.006l.004-.004.01-.006c.002 0 .003-.002.005-.003l.01-.006.005-.003.009-.006.004-.003a.769.769 0 00.01-.006l.005-.004.01-.005.004-.003.01-.007.005-.003.009-.006a.15.15 0 01.005-.003l.01-.006.005-.003.009-.006.005-.003.009-.006.005-.004.01-.005.005-.004.008-.005.006-.004.01-.006.004-.003.01-.006a.176.176 0 00.005-.003l.009-.006.005-.004.01-.005a.168.168 0 00.005-.004l.009-.005a.157.157 0 01.005-.004l.009-.005a.187.187 0 00.006-.004l.008-.005a.199.199 0 01.006-.004l.009-.005.006-.005.008-.005.006-.003.009-.006.005-.004.01-.005.005-.003.009-.006a.168.168 0 00.005-.004l.009-.005.005-.004a.423.423 0 01.015-.009l.009-.005.006-.004.008-.005.007-.004.008-.005a.135.135 0 00.006-.004l.008-.006.006-.003.009-.006.005-.003a.265.265 0 00.01-.006l.005-.003.008-.006.006-.003.009-.006.006-.004.009-.005.005-.003.009-.006.006-.004a.377.377 0 00.008-.005l.007-.004.008-.005.006-.004.008-.005.006-.004.01-.005.004-.003.01-.006.005-.003.009-.006a.125.125 0 00.006-.004l.009-.005.006-.004.008-.005.006-.004.009-.005.006-.004a.394.394 0 01.008-.005l.006-.003.009-.006.005-.003.01-.006.005-.004.009-.005.006-.004.008-.005a.383.383 0 01.007-.004l.008-.005a.133.133 0 01.006-.004l.008-.005.006-.003.01-.006a.101.101 0 01.005-.003l.009-.006.006-.003.008-.006.006-.003.009-.006c.002 0 .004-.002.006-.004l.008-.005.007-.003a.59.59 0 00.008-.005l.006-.004.009-.005.006-.004.008-.005.007-.004.008-.005a.383.383 0 01.015-.01l.007-.004.007-.004a.52.52 0 01.008-.005l.007-.004.006-.004.008-.005c.002-.001.005-.002.006-.004l.009-.005.007-.004a.52.52 0 00.008-.005l.007-.004.007-.004a.562.562 0 01.008-.005l.007-.004.008-.005.006-.004.01-.006.005-.003a.471.471 0 01.023-.014l.006-.004.008-.004a.26.26 0 00.022-.013l.008-.005.007-.004.008-.006.006-.003.008-.005.007-.004a.494.494 0 01.023-.014l.006-.004.009-.005.006-.003a.308.308 0 01.008-.005l.007-.004.009-.006.005-.003.01-.005.005-.004.008-.004.007-.005.007-.004.008-.005.007-.004a.26.26 0 00.007-.004l.007-.004.008-.005.006-.003a.024.024 0 01.01-.006.11.11 0 00.004-.003l.01-.006.007-.004.007-.004.008-.005.007-.004a.143.143 0 00.007-.004l.008-.005.006-.003.009-.006.006-.004a.206.206 0 00.008-.004l.008-.005a.152.152 0 01.007-.004l.009-.005.006-.004.008-.005.007-.004a.19.19 0 01.008-.004l.007-.004a.292.292 0 00.007-.005l.008-.004.006-.004.008-.005c.002 0 .004-.002.005-.003a.528.528 0 01.017-.01l.008-.004.007-.004a.338.338 0 01.008-.005l.007-.004a.2.2 0 00.008-.005l.008-.005.006-.003.01-.006.005-.003.01-.006.005-.003.01-.006a.214.214 0 01.015-.009l.005-.002.01-.006a.211.211 0 00.005-.003l.008-.005.006-.003.005-.003.025-.015a.202.202 0 00.006-.003l.01-.005.005-.004.009-.005.025-.015.005-.002.006-.004a.382.382 0 00.009-.005l.044-.026.087-.05.017-.01a.251.251 0 01.006-.003l.013-.007.005-.003.016-.009.002-.001.018-.01a.072.072 0 00.004-.003l.014-.008.005-.003.016-.009.002-.001.018-.01.003-.002.015-.009.005-.003.015-.008.003-.002.019-.01.018-.01.004-.003.015-.008.003-.002.037-.021.003-.002.016-.009c.001 0 .002 0 .003-.002l.038-.02.002-.002.016-.01h.003l.038-.022a1.64 1.64 0 01.019-.01l.002-.002.057-.032h.002l.057-.033h.001a3.11 3.11 0 00.019-.01v-.001l.04-.022.02-.01c0-.001-.002 0 0 0l.059-.033a43.047 43.047 0 015.041-2.369l.061-.024h.001l.122-.048.02-.008h.001l.06-.023h.002l.06-.024h.002l.059-.023.003-.001.018-.007.04-.015.003-.001.017-.007.003-.001.04-.015h.001l.018-.007.002-.001.04-.015h.001l.018-.007.003-.002.019-.006.02-.008h.002l.018-.008h.003l.017-.007.003-.001.038-.014.005-.002.014-.006.005-.001.038-.014a.07.07 0 00.004-.002l.015-.005a.089.089 0 01.005-.002l.018-.007.02-.007a.185.185 0 01.004-.002l.015-.005.005-.002a1.033 1.033 0 00.038-.014l.003-.001.016-.006c.003 0 .002 0 .004-.002l.016-.005.003-.002a1.47 1.47 0 00.02-.007h.002a.793.793 0 01.017-.006l.004-.002.015-.006a.231.231 0 01.023-.008h.002l.017-.007.006-.002.013-.005.006-.002.018-.006.02-.008.004-.001.014-.005.006-.002.017-.006h.001l.02-.008.003-.001.015-.006.006-.002.014-.005.005-.001.019-.007.002-.001.016-.006.006-.002.014-.005.005-.002.018-.006.004-.001.015-.006a.655.655 0 01.02-.007l.005-.002.017-.006.004-.001.015-.006a.217.217 0 00.02-.006l.007-.003.014-.005.004-.001.018-.007.006-.002a.583.583 0 00.013-.004l.007-.003.013-.004.005-.002.018-.006.007-.003.011-.004c.003 0 .006-.002.008-.003a.523.523 0 00.012-.004l.007-.002.017-.006.006-.002.013-.005.008-.002.01-.004.008-.003.015-.005.008-.003.013-.004.008-.003.01-.004.008-.002a.676.676 0 00.013-.005l.01-.003.013-.005a.299.299 0 01.008-.002l.01-.004.009-.003a.53.53 0 00.011-.004l.008-.002.016-.006c.003 0 .006-.002.008-.003l.01-.003.01-.003a.417.417 0 00.01-.004l.008-.003.016-.005.01-.003a.314.314 0 00.018-.007l.01-.003.008-.003.014-.005c.004 0 .007-.002.011-.003l.01-.004.01-.003.009-.003.009-.003.009-.003.017-.006.008-.003.01-.003a.284.284 0 00.009-.003l.01-.003a.29.29 0 00.026-.009.356.356 0 01.007-.003c.004 0 .007-.002.01-.003a.238.238 0 01.009-.003l.01-.003a4.53 4.53 0 01.027-.009l.007-.003a1.251 1.251 0 01.018-.006l.01-.003c.003 0 .006-.002.008-.003l.01-.003.01-.003.016-.006.009-.002a.437.437 0 01.01-.004l.007-.002.012-.004.003-.001.024-.008.006-.002.011-.004.006-.002.012-.004.005-.001.024-.008.004-.002.012-.003a.127.127 0 00.006-.002l.012-.004.005-.002.04-.013.005-.002.013-.004.004-.001.042-.014a.066.066 0 01.004-.001l.013-.004.004-.002.042-.013.003-.001.014-.005h.004c.014-.006.029-.01.043-.015h.002l.013-.005.005-.001.013-.004h.002c.014-.006.029-.01.043-.015l.004-.001.014-.004.003-.001.043-.014h.003a.04.04 0 01.014-.005l.003-.001c.015-.005.028-.01.044-.014h.002l.014-.005.003-.001.045-.014a.819.819 0 00.017-.006l.06-.019h.004l.014-.005h.001l.045-.014.002-.001.015-.005h.001l.047-.014.015-.005h.002l.062-.02a14.6 14.6 0 01.063-.019h.001l.062-.02a42.522 42.522 0 016.075-1.36l.129-.02.08-.011.065-.01.064-.008.064-.01.017-.001.047-.007h.002l.014-.002h.003l.045-.007h.002l.014-.002h.003l.062-.009h.002l.062-.008h.003l.014-.002h.002l.045-.006h.003l.014-.003h.003l.044-.006h.003l.014-.002h.004l.043-.006h.004l.013-.002h.005l.013-.002h.003l.027-.004h.003l.012-.002h.006l.012-.002.006-.001.027-.003.013-.002h.006l.012-.002.007-.001.04-.005h.005l.012-.002h.007c.013-.003.026-.004.04-.006h.005l.012-.002h.007l.011-.002h.006l.022-.003.007-.001.01-.001.008-.001.011-.002h.007l.02-.003h.008l.01-.002.009-.001.01-.001.008-.001.017-.002.01-.001.01-.001.009-.001.01-.002h.009l.01-.002.016-.002h.01l.008-.002h.01l.01-.002.01-.001a.36.36 0 01.009-.001l.016-.002.01-.001.009-.001.01-.001.009-.001.012-.002h.01l.014-.002.008-.001.011-.001.008-.001a.42.42 0 01.037-.004l.008-.001.01-.001.01-.001.01-.002h.008l.018-.002.007-.001.012-.001.008-.001.011-.001.008-.001a.948.948 0 00.018-.002h.007l.011-.002.009-.001.011-.001h.008l.018-.003h.004l.015-.002h.007l.012-.002a.19.19 0 01.023-.002h.004l.017-.002.008-.001.012-.001.007-.001.014-.002h.005l.019-.002h.006l.013-.002h.007l.014-.002h.005l.018-.002.006-.001.014-.001.007-.001.013-.001h.006l.018-.003h.005l.014-.002h.008a.555.555 0 00.019-.002l.017-.002h.004l.017-.002h.005l.014-.002h.006l.018-.002h.001l.02-.002h.005l.014-.002h.006l.016-.002h.003l.02-.002h.003l.016-.002h.005l.017-.002h.003l.02-.002h.002l.017-.002h.005l.016-.002h.004l.039-.004h.004a.874.874 0 01.02-.002l.04-.003h.003l.017-.002h.004l.04-.004h.002l.018-.002h.003l.018-.001h.002l.02-.002h.002l.018-.002h.004a.943.943 0 01.017-.002h.003l.02-.002.02-.001h.003a.985.985 0 01.017-.002h.004l.04-.004h.003l.017-.001h.003l.041-.004.02-.001h.002l.062-.005h.002l.062-.005.021-.002.042-.003c.002 0 0 0 0 0l.022-.002.042-.003.084-.006h.001l.063-.005.064-.004a42.823 42.823 0 012.831-.1 1 1 0 11.005 2 40.652 40.652 0 00-20.197 5.427l-.083.047c-4.748 2.742-8.814 6.326-12.085 10.653A40.226 40.226 0 0018.87 49.81a40.1 40.1 0 00-1.052 15.419 40.037 40.037 0 005.138 15.168 40.26 40.26 0 0010.68 12.046 40.629 40.629 0 0014.015 6.802 40.763 40.763 0 0015.558 1.079 40.56 40.56 0 0015.309-5.121l.082-.048a1.001 1.001 0 011.367.367.999.999 0 01-.365 1.364l-.002.001z" fill="#E17B31"/><path opacity=".08" d="M89.363 31.305l-.076-.075a40.92 40.92 0 00-13.615-8.996 41.216 41.216 0 00-15.493-3 41.216 41.216 0 00-15.492 3A40.92 40.92 0 0031.07 31.23c-3.923 3.903-6.961 8.451-9.031 13.52a40.618 40.618 0 00-3.023 15.377A40.621 40.621 0 0022 75.514c2.057 5.073 5.083 9.628 8.994 13.54l.076.075a40.92 40.92 0 0013.616 8.996 41.218 41.218 0 0015.492 2.999 41.22 41.22 0 0015.493-2.999 40.92 40.92 0 0013.615-8.996c3.923-3.903 6.962-8.451 9.031-13.52a40.585 40.585 0 003.023-15.377 40.62 40.62 0 00-2.984-15.387c-2.056-5.073-5.082-9.628-8.994-13.54zm1.06-1.06c16.584 16.583 16.557 43.397-.078 59.947-16.66 16.576-43.672 16.576-60.332 0l-.079-.078c-16.583-16.583-16.556-43.397.079-59.948 16.66-16.575 43.672-16.575 60.332 0l.079.079z" fill="#E17B31"/></svg>