<svg width="16" height="18" fill="none" xmlns="http://www.w3.org/2000/svg"><path opacity=".7" d="M10.461 17.488c-2.152-1.207-4.098-2.834-5.747-4.805C2.96 10.83 1.524 8.63.475 6.195l-.083-.214a3.877 3.877 0 01-.39-1.803c.015-.63.18-1.243.478-1.776C1.001 1.423 2.44 0 3.504 0h.083c.427.057.82.285 1.11.641L4.8.757A14.449 14.449 0 016.753 3.83l.02.08c.049.3.041.608-.022.904a2.33 2.33 0 01-.343.818l-.088.174c-.16.332-.19.475-.14.642A8.19 8.19 0 007.768 9.2c.691.785 1.52 1.4 2.432 1.808a.379.379 0 00.15.033c.197-.03.384-.115.544-.248l.198-.127c.3-.223.647-.35 1.006-.368.123 0 .246.016.367.046.947.532 1.82 1.217 2.59 2.034l.219.232.078.088c.321.337.523.794.566 1.287.037 1.184-1.233 2.915-2.082 3.458a2.42 2.42 0 01-1.56.556 3.95 3.95 0 01-1.814-.512zM3.504 1.318h-.069c-.811.362-1.505.994-1.987 1.813l-.062.104a2.884 2.884 0 00.157 2.435l.083.22a21.969 21.969 0 004.023 5.98 19.426 19.426 0 005.282 4.41l.17.085a2.7 2.7 0 001.154.309c.342.006.677-.113.954-.34l.04-.028c.312-.277.599-.587.857-.926.33-.357.557-.818.652-1.322a.835.835 0 00-.23-.435l-.064-.071a16.246 16.246 0 00-2.236-1.919.44.44 0 00-.102-.011c-.22.034-.427.13-.604.278l-.195.125a1.83 1.83 0 01-.96.337 1.539 1.539 0 01-.586-.128 8.292 8.292 0 01-2.835-2.105A9.536 9.536 0 015.097 6.92a2.258 2.258 0 01-.075-.985c.049-.33.169-.642.35-.907l.085-.178c.167-.347.205-.494.174-.674a18.162 18.162 0 00-1.613-2.43l-.134-.163-.072-.08a.743.743 0 00-.266-.18l-.042-.006zM12.1 7.186a3.352 3.352 0 00-.78-1.662 2.765 2.765 0 00-1.473-.884.582.582 0 01-.346-.244.718.718 0 01-.12-.44.701.701 0 01.164-.42.562.562 0 01.369-.199h.077l.078.012c.787.172 1.51.606 2.076 1.245a4.72 4.72 0 011.098 2.342.73.73 0 01-.089.493.59.59 0 01-.37.28.518.518 0 01-.438-.1.626.626 0 01-.16-.183.703.703 0 01-.085-.238l-.001-.002zm2.741-.06c-.143-1.428-.71-2.76-1.608-3.78-.898-1.013-2.076-1.653-3.339-1.814a.57.57 0 01-.355-.215.708.708 0 01-.148-.422.715.715 0 01.13-.43.578.578 0 01.345-.234L9.942.22h.08c1.526.194 2.948.967 4.033 2.192 1.085 1.231 1.769 2.839 1.941 4.562a.718.718 0 01-.123.484.572.572 0 01-.39.244h-.066a.547.547 0 01-.385-.165.685.685 0 01-.191-.411z" fill="#fff"/></svg>